<?xml version="1.0" standalone="no"?>
<!DOCTYPE svg PUBLIC "-//W3C//DTD SVG 20010904//EN"
 "http://www.w3.org/TR/2001/REC-SVG-20010904/DTD/svg10.dtd">
<svg version="1.0" xmlns="http://www.w3.org/2000/svg"
 width="2049.000000pt" height="2049.000000pt" viewBox="0 0 2049.000000 2049.000000"
 preserveAspectRatio="xMidYMid meet">
<metadata>
Created by potrace 1.14, written by Peter Selinger 2001-2017
</metadata>
<g transform="translate(0.000000,2049.000000) scale(0.100000,-0.100000)"
fill="#000000" stroke="none">
<path d="M0 16322 l0 -589 208 -7 c835 -28 1540 -221 2202 -601 970 -557 1801
-1531 2410 -2825 271 -575 485 -1160 709 -1932 265 -913 525 -1581 851 -2188
315 -585 634 -1026 1034 -1425 348 -348 649 -566 1061 -770 451 -223 875 -340
1404 -386 178 -15 692 -6 866 15 946 118 1775 477 2505 1085 156 129 441 417
575 579 140 170 285 371 382 531 42 69 91 145 109 167 72 90 196 141 320 131
139 -10 247 -88 313 -227 34 -70 36 -82 36 -170 0 -113 -11 -141 -130 -331
-531 -852 -1321 -1563 -2230 -2009 -970 -476 -2084 -658 -3119 -509 -1266 182
-2335 849 -3197 1996 -482 640 -890 1427 -1232 2373 -103 284 -179 525 -298
935 -112 386 -180 601 -276 870 -672 1882 -1632 3090 -2873 3614 -459 194
-986 301 -1482 301 l-148 0 0 -1364 0 -1363 158 -6 c625 -22 1193 -339 1543
-860 142 -211 242 -449 297 -707 24 -117 26 -142 26 -380 1 -241 -1 -262 -27
-383 -84 -393 -261 -722 -537 -997 -360 -361 -850 -569 -1337 -570 l-123 0 0
-1366 0 -1367 238 6 c344 8 631 48 974 133 335 84 607 184 933 344 482 236
871 515 1250 895 281 281 508 571 705 900 30 50 72 109 93 133 91 98 246 135
385 93 176 -53 298 -260 263 -447 -14 -79 -29 -110 -129 -269 -636 -1008
-1563 -1772 -2669 -2200 -587 -228 -1310 -365 -1920 -365 l-123 0 0 -615 0
-615 10245 0 10245 0 0 613 0 614 -242 6 c-511 14 -936 84 -1375 228 -394 129
-732 294 -1093 534 -1058 703 -1901 1885 -2510 3515 -109 291 -227 654 -339
1040 -135 467 -232 766 -345 1068 -722 1928 -1746 3106 -3086 3552 -272 91
-514 143 -835 182 -171 20 -751 17 -935 -5 -630 -77 -1198 -254 -1722 -538
-737 -400 -1340 -969 -1777 -1676 -128 -207 -211 -265 -376 -265 -178 0 -310
102 -366 283 -38 122 -21 220 63 361 362 606 913 1197 1513 1623 1221 867
2762 1202 4179 908 1330 -275 2445 -1134 3299 -2540 446 -734 798 -1578 1116
-2675 196 -675 326 -1049 534 -1538 112 -264 334 -709 463 -930 756 -1293
1711 -2040 2914 -2280 213 -42 398 -61 663 -67 l257 -6 0 1367 0 1366 -1040 0
-1040 0 0 390 0 390 730 0 c796 0 763 -2 809 56 l21 27 0 1087 0 1087 -22 28
c-44 56 -26 55 -813 55 l-725 0 0 390 0 390 1040 0 1040 0 0 1365 0 1365 -169
0 c-887 0 -1804 -281 -2556 -783 -579 -387 -1036 -867 -1414 -1484 -70 -115
-118 -163 -200 -202 -49 -23 -68 -26 -156 -26 -89 1 -107 4 -157 28 -82 40
-142 103 -186 195 -35 72 -37 83 -37 172 0 113 11 140 130 331 462 741 1132
1386 1894 1823 615 353 1297 583 2003 676 217 28 367 39 624 47 l224 6 0 589
0 588 -10245 0 -10245 0 0 -588z m11080 -4126 c291 -69 498 -182 695 -380 269
-271 400 -589 398 -971 -1 -379 -147 -715 -427 -982 -182 -175 -390 -285 -661
-350 -63 -15 -171 -17 -1047 -20 l-978 -4 0 -584 0 -585 -395 0 -395 0 0 1950
0 1950 1368 -3 c1270 -3 1372 -4 1442 -21z"/>
<path d="M9134 11426 c-17 -8 -40 -26 -52 -41 -22 -28 -22 -30 -22 -531 l0
-502 25 -30 c13 -16 37 -35 53 -41 21 -9 252 -11 897 -9 l870 3 73 27 c202 73
348 226 397 414 19 75 19 203 0 279 -51 194 -199 351 -395 418 -65 22 -66 22
-940 24 -721 2 -880 0 -906 -11z"/>
<path d="M0 10270 l0 -1173 117 6 c257 12 472 87 665 233 565 423 627 1246
133 1750 -215 219 -474 332 -801 351 l-114 6 0 -1173z"/>
</g>
</svg>
