<?xml version="1.0" encoding="utf-8"?>
<!-- Generator: Adobe Illustrator 27.0.0, SVG Export Plug-In . SVG Version: 6.00 Build 0)  -->
<svg version="1.1" xmlns="http://www.w3.org/2000/svg" xmlns:xlink="http://www.w3.org/1999/xlink" x="0px" y="0px"
	 viewBox="0 0 360 140" style="enable-background:new 0 0 360 140;" xml:space="preserve" width="200" height="auto">
<style type="text/css">
	.st0{fill:#122666;}
	.st1{fill:#E84435;}
	.st2{fill:#F6BA17;}
	.st3{fill:#537DBE;}
	.st4{fill:#33A650;}
	.st5{fill-rule:evenodd;clip-rule:evenodd;fill:url(#SVGID_1_);}
	.st6{fill-rule:evenodd;clip-rule:evenodd;fill:url(#SVGID_00000015339123231071216520000013452444205795431855_);}
	.st7{fill:#FFFFFF;}
	.st8{fill:#75C156;}
	.st9{fill:#231F20;}
	.st10{fill:none;stroke:#64D755;stroke-width:35.8173;stroke-miterlimit:10;}
	.st11{fill:#122666;stroke:#231F20;stroke-miterlimit:10;}
	.st12{fill:#415185;stroke:#231F20;stroke-miterlimit:10;}
	.st13{fill:#717DA3;stroke:#231F20;stroke-miterlimit:10;}
	.st14{fill:#A0A8C2;stroke:#231F20;stroke-miterlimit:10;}
	.st15{fill:#D0D4E0;stroke:#231F20;stroke-miterlimit:10;}
	.st16{fill:#435281;}
	.st17{fill:#747DA0;}
	.st18{fill:#A1A8C0;}
	.st19{fill:#D0D4DF;}
</style>
<g id="Blue">
</g>
<g id="Black">
</g>
<g id="Green">
</g>
<g id="White_00000178188375692720244030000014690952776240192413_">
	<rect x="0" class="st0" width="360" height="140"/>
	<g>
		<path class="st8" d="M180,115.6c-21.2,0-36.3-15.7-44.7-46.7c-9.4-34.2-27.3-52.2-51.9-52.2c-28.7,0-52,23.9-52,53.2
			s23.3,53.2,52,53.2c18.7,0,35.7-10.3,44.9-26.4c0.6-1.1,0.7-2.4,0.1-3.5c0-0.1-0.1-0.2-0.1-0.3c-1.3-2.7-4.9-2.7-6.4-0.2
			c-7.9,13.9-22.5,22.7-38.6,22.7c-24.6,0-44.6-20.5-44.6-45.6s20-45.6,44.6-45.6c21.2,0,36.3,15.7,44.7,46.7
			c9.4,34.2,27.3,52.2,51.9,52.2c18.6,0,35.7-10.3,44.9-26.4c0.6-1.1,0.7-2.4,0.1-3.5c0-0.1-0.1-0.2-0.1-0.3
			c-1.3-2.7-4.9-2.7-6.4-0.2C210.7,106.8,196,115.6,180,115.6z"/>
		<path class="st8" d="M278,16.8c-19.4-0.5-36.8,9.7-46.2,26.2c-0.6,1.1-0.7,2.4-0.1,3.5c0,0.1,0.1,0.1,0.1,0.2
			c1.3,2.7,4.9,2.8,6.4,0.2c8.2-14.4,23.5-23.2,40.5-22.5c23,1,41.7,20.3,42.6,43.8c1,26-19.4,47.4-44.6,47.4
			c-21.2,0-36.3-15.7-44.7-46.7c-9.4-34.2-27.3-52.2-51.9-52.2c-18.5,0-35.6,10.2-44.8,26.2c-0.6,1.1-0.7,2.4-0.2,3.5
			c0,0.1,0.1,0.2,0.1,0.2c1.2,2.7,4.9,2.8,6.3,0.3c7.9-13.8,22.6-22.6,38.5-22.6c21.2,0,36.3,15.7,44.7,46.7
			c9.4,34.2,27.3,52.2,51.9,52.2c28.9,0,52.4-24.2,52-53.9C328.4,40.9,305.8,17.5,278,16.8z"/>
		<path class="st7" d="M83.3,51H64.8v38h18.6c10.3,0,18.6-8.5,18.6-19S93.6,51,83.3,51z M83.3,81.4l-8.7,0h-1.2
			c-0.7,0-1.2-0.6-1.2-1.3V59.9c0-0.7,0.6-1.3,1.2-1.3h1.2h8.7c6.2,0,11.2,5.1,11.2,11.4C94.5,76.3,89.5,81.4,83.3,81.4z"/>
		<path class="st7" d="M281.6,58.6c-0.7,0-1.2,0.6-1.2,1.3v20.3c0,0.7,0.6,1.3,1.2,1.3h13.6V89h-37.2v-7.6h13.6
			c0.7,0,1.2-0.6,1.2-1.3V59.9c0-0.7-0.6-1.3-1.2-1.3h-13.6V51h37.2v7.6H281.6z"/>
		<path class="st7" d="M185.6,51h-24.2v38h7.4V77.6h16.7c7.2,0,13-6,13-13.3S192.8,51,185.6,51z M185.3,70l-15.3,0
			c-0.7,0-1.2-0.6-1.2-1.3v-8.9c0-0.7,0.6-1.3,1.2-1.3h15.5c3.1,0,5.7,2.6,5.6,5.9C191.1,67.6,188.4,70,185.3,70z"/>
	</g>
</g>
</svg>
